<svg width="28" height="21" viewBox="0 0 28 21" fill="none" xmlns="http://www.w3.org/2000/svg">
<rect width="27.5" height="20.7059" rx="1" fill="#19D45E"/>
<path d="M22.1677 18.1176V11.8524L22.6076 12.3865C22.2166 12.9891 21.672 13.4547 20.9738 13.7833C20.2756 14.0983 19.5145 14.2558 18.6907 14.2558C17.5875 14.2558 16.603 14.0025 15.7372 13.4958C14.8714 12.9754 14.1872 12.2701 13.6845 11.38C13.1818 10.4898 12.9304 9.50385 12.9304 8.422C12.9304 7.32645 13.1818 6.34045 13.6845 5.46401C14.1872 4.58757 14.8714 3.88916 15.7372 3.36878C16.617 2.84839 17.5945 2.5882 18.6697 2.5882C19.5355 2.5882 20.3035 2.75938 20.9738 3.10174C21.658 3.4304 22.1957 3.89601 22.5867 4.49856L22.3144 5.05318V2.83469H24.9117V18.1176H22.1677ZM18.9839 11.7908C19.6123 11.7908 20.1639 11.647 20.6387 11.3594C21.1134 11.0719 21.4835 10.6747 21.7488 10.168C22.0281 9.66134 22.1677 9.07933 22.1677 8.422C22.1677 7.77836 22.0281 7.2032 21.7488 6.69651C21.4835 6.17612 21.1134 5.77214 20.6387 5.48456C20.1639 5.19697 19.6123 5.05318 18.9839 5.05318C18.3695 5.05318 17.8179 5.20382 17.3291 5.5051C16.8404 5.79268 16.4564 6.18982 16.1771 6.69651C15.9118 7.1895 15.7791 7.76467 15.7791 8.422C15.7791 9.07933 15.9118 9.66134 16.1771 10.168C16.4564 10.6747 16.8404 11.0719 17.3291 11.3594C17.8179 11.647 18.3695 11.7908 18.9839 11.7908Z" fill="black"/>
<path d="M5.33226 18.1176V11.8524L4.89239 12.3865C5.28339 12.9891 5.82799 13.4547 6.5262 13.7833C7.22441 14.0983 7.98546 14.2558 8.80935 14.2558C9.91252 14.2558 10.897 14.0025 11.7628 13.4958C12.6286 12.9754 13.3128 12.2701 13.8155 11.38C14.3182 10.4898 14.5696 9.50385 14.5696 8.422C14.5696 7.32645 14.3182 6.34045 13.8155 5.46401C13.3128 4.58757 12.6286 3.88916 11.7628 3.36878C10.883 2.84839 9.90554 2.5882 8.83029 2.5882C7.96451 2.5882 7.19648 2.75938 6.5262 3.10174C5.84195 3.4304 5.30433 3.89601 4.91333 4.49856L5.18564 5.05318V2.83469H2.58829V18.1176H5.33226ZM8.5161 11.7908C7.88771 11.7908 7.33612 11.647 6.86134 11.3594C6.38656 11.0719 6.01651 10.6747 5.75119 10.168C5.4719 9.66134 5.33226 9.07933 5.33226 8.422C5.33226 7.77836 5.4719 7.2032 5.75119 6.69651C6.01651 6.17612 6.38656 5.77214 6.86134 5.48456C7.33612 5.19697 7.88771 5.05318 8.5161 5.05318C9.13052 5.05318 9.68211 5.20382 10.1709 5.5051C10.6596 5.79268 11.0436 6.18982 11.3229 6.69651C11.5882 7.1895 11.7209 7.76467 11.7209 8.422C11.7209 9.07933 11.5882 9.66134 11.3229 10.168C11.0436 10.6747 10.6596 11.0719 10.1709 11.3594C9.68211 11.647 9.13052 11.7908 8.5161 11.7908Z" fill="black"/>
</svg>
