<svg width="279" height="45" viewBox="0 0 279 45" fill="none" xmlns="http://www.w3.org/2000/svg">
<path d="M262.598 28.5702V27.8811C262.598 26.2909 262.863 24.8951 263.393 23.6936C263.958 22.4568 264.647 21.3614 265.46 20.4073C266.308 19.4178 267.192 18.4991 268.11 17.651C269.347 16.4142 270.46 15.2127 271.45 14.0466C272.475 12.8804 272.987 11.5023 272.987 9.9121C272.987 8.99333 272.757 8.12757 272.298 7.31481C271.839 6.50206 271.149 5.84832 270.231 5.3536C269.347 4.85887 268.252 4.61151 266.944 4.61151C265.142 4.61151 263.587 5.17691 262.28 6.3077C260.972 7.4385 260.16 8.94033 259.842 10.8132L255.177 9.75309C255.495 7.80954 256.184 6.11335 257.244 4.66452C258.34 3.18035 259.718 2.03189 261.379 1.21914C263.075 0.406379 264.948 0 266.997 0C269.294 0 271.273 0.477053 272.934 1.43116C274.63 2.34993 275.938 3.55139 276.856 5.03556C277.775 6.51973 278.235 8.12757 278.235 9.8591C278.235 11.4139 277.917 12.7921 277.28 13.9936C276.644 15.1597 275.832 16.2375 274.842 17.2269C273.888 18.2164 272.934 19.2058 271.98 20.1952C270.814 21.326 269.789 22.5098 268.906 23.7466C268.057 24.9481 267.633 26.3616 267.633 27.9871V28.5702H262.598ZM262.651 40.1255V33.7648H267.792V40.1255H262.651Z" fill="white"/>
<path d="M245.494 40.1255V0.636108H250.689V40.1255H245.494Z" fill="white"/>
<path d="M215.469 40.1255V0.636108H241.177V5.40664H220.664V17.916H240.117V22.6866H220.664V35.355H241.177V40.1255H215.469Z" fill="white"/>
<path d="M196.787 40.1255V5.40664H186.08V0.636108H212.583V5.40664H202.034V40.1255H196.787Z" fill="white"/>
<path d="M171.318 40.7615C168.809 40.7615 166.512 40.3021 164.427 39.3834C162.343 38.4293 160.576 37.1395 159.127 35.5139C157.678 33.8884 156.636 32.0686 156 30.0543L160.505 28.1991C161.459 30.7434 162.873 32.7046 164.745 34.0828C166.654 35.4256 168.88 36.097 171.424 36.097C172.979 36.097 174.34 35.8497 175.506 35.3549C176.672 34.8602 177.573 34.1711 178.209 33.2877C178.88 32.3689 179.216 31.3088 179.216 30.1073C179.216 28.4465 178.739 27.139 177.785 26.1849C176.866 25.1955 175.506 24.4534 173.703 23.9587L166.442 21.7324C163.579 20.849 161.388 19.4532 159.869 17.545C158.349 15.6367 157.59 13.4458 157.59 10.9722C157.59 8.81665 158.102 6.9261 159.127 5.30059C160.187 3.63974 161.636 2.34993 163.473 1.43116C165.346 0.477053 167.466 0 169.834 0C172.202 0 174.34 0.424047 176.248 1.27214C178.191 2.12023 179.834 3.2687 181.177 4.71752C182.52 6.13102 183.51 7.75653 184.146 9.59407L179.693 11.4493C178.845 9.22303 177.573 7.54451 175.877 6.41371C174.181 5.24758 172.184 4.66452 169.887 4.66452C168.474 4.66452 167.219 4.91188 166.124 5.4066C165.064 5.86599 164.233 6.55506 163.632 7.47383C163.067 8.35726 162.784 9.41738 162.784 10.6542C162.784 12.103 163.244 13.3928 164.162 14.5236C165.081 15.6544 166.477 16.5202 168.35 17.1209L174.976 19.0821C178.085 20.0362 180.435 21.3967 182.025 23.1636C183.616 24.9304 184.411 27.1214 184.411 29.7363C184.411 31.8919 183.845 33.8001 182.714 35.4609C181.619 37.1218 180.082 38.4293 178.103 39.3834C176.159 40.3021 173.898 40.7615 171.318 40.7615Z" fill="white"/>
<path d="M120.957 40.1255L135.11 0.636108H141.258L155.411 40.1255H149.845L146.612 30.8495H129.756L126.523 40.1255H120.957ZM131.399 26.0789H144.969L137.442 4.39953H138.926L131.399 26.0789Z" fill="white"/>
<path d="M101.957 40.7615C99.1652 40.7615 96.5855 40.2668 94.2179 39.2774C91.8503 38.2526 89.8008 36.8214 88.0693 34.9839C86.3377 33.1464 84.9772 30.9908 83.9878 28.5172C83.0337 26.0436 82.5566 23.3403 82.5566 20.4073C82.5566 17.4389 83.0337 14.718 83.9878 12.2444C84.9419 9.77075 86.2847 7.61518 88.0162 5.77764C89.7478 3.9401 91.7973 2.52661 94.1649 1.53717C96.5325 0.51239 99.1121 0 101.904 0C104.625 0 107.063 0.477053 109.219 1.43116C111.41 2.38527 113.247 3.62207 114.731 5.14157C116.251 6.66107 117.329 8.28659 117.965 10.0181L113.3 12.2974C112.381 10.0004 110.95 8.18058 109.007 6.83776C107.063 5.49495 104.695 4.82354 101.904 4.82354C99.1475 4.82354 96.6915 5.47728 94.536 6.78476C92.4157 8.09223 90.7549 9.9121 89.5534 12.2444C88.352 14.5766 87.7512 17.2976 87.7512 20.4073C87.7512 23.4816 88.352 26.1849 89.5534 28.5172C90.7902 30.8494 92.4687 32.6693 94.589 33.9768C96.7446 35.2843 99.2005 35.938 101.957 35.938C104.36 35.938 106.533 35.4256 108.477 34.4008C110.42 33.376 111.957 31.9626 113.088 30.1604C114.219 28.3582 114.784 26.2733 114.784 23.9057V21.4674L117.169 23.6936H101.904V19.1881H120.032V22.6865C120.032 25.4428 119.555 27.9341 118.601 30.1604C117.647 32.3866 116.339 34.2948 114.678 35.885C113.017 37.4398 111.091 38.6413 108.901 39.4894C106.71 40.3375 104.395 40.7615 101.957 40.7615Z" fill="white"/>
<path d="M52.0737 40.7615C49.1053 40.7615 46.349 40.2491 43.8048 39.2244C41.2605 38.1996 39.0342 36.7684 37.126 34.9309C35.2531 33.058 33.7866 30.8848 32.7265 28.4112C31.6664 25.9376 31.1364 23.2519 31.1364 20.3543C31.1364 17.4566 31.6487 14.771 32.6735 12.2974C33.7336 9.82376 35.2001 7.66819 37.073 5.83065C38.9812 3.99311 41.2075 2.56195 43.7518 1.53717C46.296 0.51239 49.07 0 52.0737 0C55.0773 0 57.8513 0.51239 60.3956 1.53717C62.9399 2.56195 65.1485 3.99311 67.0213 5.83065C68.9296 7.66819 70.396 9.82376 71.4208 12.2974C72.4809 14.771 73.011 17.4566 73.011 20.3543C73.011 23.2519 72.4809 25.9376 71.4208 28.4112C70.3607 30.8848 68.8766 33.058 66.9683 34.9309C65.0955 36.7684 62.8869 38.1996 60.3426 39.2244C57.7983 40.2491 55.042 40.7615 52.0737 40.7615ZM52.0737 33.3407C53.8759 33.3407 55.5367 33.0227 57.0562 32.3866C58.6111 31.7505 59.9716 30.8671 61.1377 29.7363C62.3038 28.5702 63.2049 27.192 63.841 25.6018C64.4771 24.0117 64.7951 22.2625 64.7951 20.3543C64.7951 18.4461 64.4771 16.7145 63.841 15.1597C63.2049 13.5695 62.3038 12.1914 61.1377 11.0252C59.9716 9.8591 58.6111 8.97566 57.0562 8.37493C55.5367 7.73886 53.8759 7.42082 52.0737 7.42082C50.2715 7.42082 48.593 7.73886 47.0381 8.37493C45.5186 8.97566 44.1758 9.8591 43.0097 11.0252C41.8435 12.1914 40.9424 13.5695 40.3064 15.1597C39.6703 16.7145 39.3523 18.4461 39.3523 20.3543C39.3523 22.2625 39.6703 24.0117 40.3064 25.6018C40.9424 27.192 41.8435 28.5702 43.0097 29.7363C44.1758 30.8671 45.5186 31.7505 47.0381 32.3866C48.593 33.0227 50.2715 33.3407 52.0737 33.3407ZM60.4486 44.896L48.6813 24.3297H57.1622L69.0886 44.896H60.4486Z" fill="#2FAE5D"/>
<path d="M0 40.1255V0.636108H15.1597C17.8807 0.636108 20.2836 1.11316 22.3685 2.06727C24.4887 3.02137 26.1496 4.43487 27.351 6.30774C28.5525 8.18062 29.1532 10.4952 29.1532 13.2515C29.1532 15.9371 28.5348 18.2164 27.298 20.0893C26.0966 21.9621 24.4357 23.3933 22.3155 24.3827C20.2306 25.3369 17.8453 25.8139 15.1597 25.8139H8.21591V40.1255H0ZM8.21591 18.6581H15.2127C16.3788 18.6581 17.3859 18.4284 18.234 17.969C19.0821 17.5097 19.7359 16.8736 20.1952 16.0608C20.69 15.2481 20.9373 14.3116 20.9373 13.2515C20.9373 12.1561 20.69 11.202 20.1952 10.3892C19.7359 9.57644 19.0821 8.94037 18.234 8.48098C17.3859 8.0216 16.3788 7.79191 15.2127 7.79191H8.21591V18.6581Z" fill="#2FAE5D"/>
</svg>
