<svg width="101" height="41" viewBox="0 0 101 41" fill="none" xmlns="http://www.w3.org/2000/svg">
<path d="M84.4208 28.5702V27.8811C84.4208 26.2909 84.6859 24.8951 85.2159 23.6936C85.7813 22.4568 86.4704 21.3614 87.2831 20.4073C88.1312 19.4178 89.0147 18.4991 89.9334 17.651C91.1702 16.4142 92.2834 15.2127 93.2728 14.0466C94.2976 12.8804 94.81 11.5023 94.81 9.9121C94.81 8.99333 94.5803 8.12757 94.1209 7.31481C93.6615 6.50206 92.9724 5.84832 92.0537 5.3536C91.1702 4.85887 90.0748 4.61151 88.7673 4.61151C86.9651 4.61151 85.4103 5.17691 84.1028 6.3077C82.7953 7.4385 81.9826 8.94033 81.6645 10.8132L77 9.75309C77.318 7.80954 78.0071 6.11335 79.0672 4.66452C80.1627 3.18035 81.5408 2.03189 83.2017 1.21914C84.8979 0.406379 86.7708 0 88.8203 0C91.1172 0 93.0961 0.477053 94.757 1.43116C96.4532 2.34993 97.7606 3.55139 98.6794 5.03556C99.5982 6.51973 100.058 8.12757 100.058 9.8591C100.058 11.4139 99.7395 12.7921 99.1035 13.9936C98.4674 15.1597 97.6546 16.2375 96.6652 17.2269C95.7111 18.2164 94.757 19.2058 93.8029 20.1952C92.6367 21.326 91.612 22.5098 90.7285 23.7466C89.8804 24.9481 89.4564 26.3616 89.4564 27.9871V28.5702H84.4208ZM84.4738 40.1255V33.7648H89.6154V40.1255H84.4738Z" fill="#6D6D6D"/>
<path d="M53.4002 40.7615C50.6085 40.7615 48.0289 40.2668 45.6613 39.2774C43.2937 38.2526 41.2441 36.8214 39.5126 34.9839C37.7811 33.1464 36.4206 30.9908 35.4312 28.5172C34.4771 26.0436 34 23.3403 34 20.4073C34 17.4389 34.4771 14.718 35.4312 12.2444C36.3853 9.77075 37.7281 7.61518 39.4596 5.77764C41.1911 3.9401 43.2407 2.52661 45.6083 1.53717C47.9759 0.51239 50.5555 0 53.3472 0C56.0681 0 58.5064 0.477053 60.662 1.43116C62.8529 2.38527 64.6904 3.62207 66.1746 5.14157C67.6941 6.66107 68.7719 8.28659 69.4079 10.0181L64.7434 12.2974C63.8247 10.0004 62.3935 8.18058 60.4499 6.83776C58.5064 5.49495 56.1388 4.82354 53.3472 4.82354C50.5908 4.82354 48.1349 5.47728 45.9793 6.78476C43.8591 8.09223 42.1982 9.9121 40.9968 12.2444C39.7953 14.5766 39.1946 17.2976 39.1946 20.4073C39.1946 23.4816 39.7953 26.1849 40.9968 28.5172C42.2336 30.8494 43.9121 32.6693 46.0323 33.9768C48.1879 35.2843 50.6439 35.938 53.4002 35.938C55.8031 35.938 57.9763 35.4256 59.9199 34.4008C61.8634 33.376 63.4006 31.9626 64.5314 30.1604C65.6622 28.3582 66.2276 26.2733 66.2276 23.9057V21.4674L68.6129 23.6936H53.3472V19.1881H71.4752V22.6865C71.4752 25.4428 70.9981 27.9341 70.044 30.1604C69.0899 32.3866 67.7824 34.2948 66.1216 35.885C64.4607 37.4398 62.5348 38.6413 60.3439 39.4894C58.153 40.3375 55.8384 40.7615 53.4002 40.7615Z" fill="#6D6D6D"/>
<path d="M0 40.1254V0.636047H15.1597C17.8807 0.636047 20.2836 1.1131 22.3685 2.06721C24.4887 3.02131 26.1496 4.4348 27.351 6.30768C28.5525 8.18055 29.1532 10.4951 29.1532 13.2515C29.1532 15.9371 28.5348 18.2163 27.298 20.0892C26.0966 21.9621 24.4357 23.3932 22.3155 24.3827C20.2306 25.3368 17.8453 25.8139 15.1597 25.8139H8.21591V40.1254H0ZM8.21591 18.6581H15.2127C16.3788 18.6581 17.3859 18.4284 18.234 17.969C19.0821 17.5096 19.7359 16.8735 20.1952 16.0608C20.69 15.248 20.9373 14.3116 20.9373 13.2515C20.9373 12.156 20.69 11.2019 20.1952 10.3891C19.7359 9.57638 19.0821 8.94031 18.234 8.48092C17.3859 8.02154 16.3788 7.79185 15.2127 7.79185H8.21591V18.6581Z" fill="#2FAE5D"/>
</svg>
