<svg width="84" height="22" viewBox="0 0 84 22" fill="none" xmlns="http://www.w3.org/2000/svg">
<rect y="1.29413" width="27.5" height="20.7059" rx="1" fill="#19D45E"/>
<path d="M22.1677 19.4117V13.1466L22.6076 13.6806C22.2166 14.2832 21.672 14.7488 20.9738 15.0775C20.2756 15.3924 19.5145 15.5499 18.6907 15.5499C17.5875 15.5499 16.603 15.2966 15.7372 14.7899C14.8714 14.2695 14.1872 13.5642 13.6845 12.6741C13.1818 11.784 12.9304 10.798 12.9304 9.71613C12.9304 8.62058 13.1818 7.63458 13.6845 6.75814C14.1872 5.8817 14.8714 5.18329 15.7372 4.6629C16.617 4.14252 17.5945 3.88232 18.6697 3.88232C19.5355 3.88232 20.3035 4.0535 20.9738 4.39586C21.658 4.72453 22.1957 5.19014 22.5867 5.79269L22.3144 6.34731V4.12882H24.9117V19.4117H22.1677ZM18.9839 13.0849C19.6123 13.0849 20.1639 12.9411 20.6387 12.6536C21.1134 12.366 21.4835 11.9688 21.7488 11.4622C22.0281 10.9555 22.1677 10.3735 22.1677 9.71613C22.1677 9.07249 22.0281 8.49733 21.7488 7.99064C21.4835 7.47025 21.1134 7.06627 20.6387 6.77868C20.1639 6.4911 19.6123 6.34731 18.9839 6.34731C18.3695 6.34731 17.8179 6.49795 17.3291 6.79922C16.8404 7.08681 16.4564 7.48394 16.1771 7.99064C15.9118 8.48363 15.7791 9.0588 15.7791 9.71613C15.7791 10.3735 15.9118 10.9555 16.1771 11.4622C16.4564 11.9688 16.8404 12.366 17.3291 12.6536C17.8179 12.9411 18.3695 13.0849 18.9839 13.0849Z" fill="black"/>
<path d="M5.33226 19.4117V13.1466L4.89239 13.6806C5.28339 14.2832 5.82799 14.7488 6.5262 15.0775C7.22441 15.3924 7.98546 15.5499 8.80935 15.5499C9.91252 15.5499 10.897 15.2966 11.7628 14.7899C12.6286 14.2695 13.3128 13.5642 13.8155 12.6741C14.3182 11.784 14.5696 10.798 14.5696 9.71613C14.5696 8.62058 14.3182 7.63458 13.8155 6.75814C13.3128 5.8817 12.6286 5.18329 11.7628 4.6629C10.883 4.14252 9.90554 3.88232 8.83029 3.88232C7.96451 3.88232 7.19648 4.0535 6.5262 4.39586C5.84195 4.72453 5.30433 5.19014 4.91333 5.79269L5.18564 6.34731V4.12882H2.58829V19.4117H5.33226ZM8.5161 13.0849C7.88771 13.0849 7.33612 12.9411 6.86134 12.6536C6.38656 12.366 6.01651 11.9688 5.75119 11.4622C5.4719 10.9555 5.33226 10.3735 5.33226 9.71613C5.33226 9.07249 5.4719 8.49733 5.75119 7.99064C6.01651 7.47025 6.38656 7.06627 6.86134 6.77868C7.33612 6.4911 7.88771 6.34731 8.5161 6.34731C9.13052 6.34731 9.68211 6.49795 10.1709 6.79922C10.6596 7.08681 11.0436 7.48394 11.3229 7.99064C11.5882 8.48363 11.7209 9.0588 11.7209 9.71613C11.7209 10.3735 11.5882 10.9555 11.3229 11.4622C11.0436 11.9688 10.6596 12.366 10.1709 12.6536C9.68211 12.9411 9.13052 13.0849 8.5161 13.0849Z" fill="black"/>
<path d="M82.0073 15.0063V4.14939H83.8911V15.0063H82.0073ZM82.0073 2.41712V0H83.8911V2.41712H82.0073Z" fill="black"/>
<path d="M75.3989 15.248C74.3456 15.248 73.4071 14.9995 72.5834 14.5027C71.7597 14.0058 71.1115 13.3277 70.6389 12.4683C70.1662 11.5954 69.9299 10.6219 69.9299 9.54759C69.9299 8.45989 70.1595 7.49304 70.6186 6.64705C71.0912 5.80106 71.7259 5.13636 72.5226 4.65293C73.3329 4.15608 74.2376 3.90765 75.2369 3.90765C76.0471 3.90765 76.7628 4.05537 77.384 4.35079C78.0186 4.63279 78.552 5.02221 78.9842 5.51907C79.4298 6.00249 79.7674 6.55977 79.9969 7.1909C80.24 7.80861 80.3615 8.45318 80.3615 9.1246C80.3615 9.27231 80.348 9.44017 80.321 9.62817C80.3075 9.80273 80.2873 9.97059 80.2603 10.1317H71.3073V8.52032H79.1665L78.2752 9.24545C78.3967 8.54718 78.3292 7.92275 78.0727 7.37219C77.8161 6.82162 77.438 6.3852 76.9383 6.06292C76.4387 5.74063 75.8716 5.57949 75.2369 5.57949C74.6022 5.57949 74.0215 5.74063 73.4949 6.06292C72.9683 6.3852 72.5564 6.84848 72.2593 7.45276C71.9757 8.04361 71.861 8.7486 71.915 9.56774C71.861 10.36 71.9825 11.0583 72.2796 11.6626C72.5902 12.2534 73.0223 12.7167 73.5759 13.0524C74.1431 13.3747 74.7575 13.5358 75.4192 13.5358C76.1484 13.5358 76.7628 13.368 77.2624 13.0323C77.7621 12.6966 78.1672 12.2669 78.4778 11.7431L80.0577 12.5488C79.8416 13.0457 79.504 13.5023 79.0449 13.9185C78.5993 14.3214 78.0659 14.6437 77.4447 14.8854C76.8371 15.1271 76.1551 15.248 75.3989 15.248Z" fill="black"/>
<path d="M67.8875 15.1271C66.8207 15.1271 65.997 14.825 65.4163 14.2207C64.8492 13.6164 64.5656 12.7637 64.5656 11.6626V5.94206H62.5806V4.14936H62.9857C63.4718 4.14936 63.8567 4.00165 64.1402 3.70622C64.4238 3.4108 64.5656 3.02137 64.5656 2.53795V1.65167H66.4494V4.14936H68.9003V5.94206H66.4494V11.6021C66.4494 11.9647 66.5034 12.2803 66.6114 12.5488C66.733 12.8174 66.9288 13.0323 67.1988 13.1934C67.4689 13.3411 67.8267 13.415 68.2724 13.415C68.3669 13.415 68.4817 13.4083 68.6167 13.3948C68.7653 13.3814 68.9003 13.368 69.0218 13.3545V15.0062C68.8463 15.0465 68.6505 15.0734 68.4344 15.0868C68.2184 15.1137 68.0361 15.1271 67.8875 15.1271Z" fill="black"/>
<path d="M57.8256 15.248C56.7318 15.248 55.7797 14.9794 54.9695 14.4423C54.1593 13.9051 53.5854 13.18 53.2478 12.2669L54.7467 11.5417C55.0573 12.1863 55.4827 12.6966 56.0228 13.0726C56.563 13.4486 57.1639 13.6366 57.8256 13.6366C58.4197 13.6366 58.9126 13.4956 59.3042 13.2136C59.6958 12.9316 59.8916 12.5623 59.8916 12.1057C59.8916 11.7834 59.7971 11.5283 59.608 11.3403C59.4325 11.1389 59.2164 10.9844 58.9599 10.877C58.7033 10.7562 58.467 10.6689 58.2509 10.6152L56.6102 10.1519C55.6245 9.86988 54.902 9.46702 54.4429 8.94332C53.9973 8.41961 53.7744 7.80861 53.7744 7.11033C53.7744 6.46577 53.9365 5.90849 54.2606 5.43849C54.5982 4.95507 55.0505 4.57907 55.6177 4.31051C56.1984 4.04194 56.8465 3.90765 57.5622 3.90765C58.521 3.90765 59.3785 4.14937 60.1347 4.63279C60.9044 5.11621 61.4513 5.79435 61.7754 6.6672L60.236 7.37219C59.9929 6.80819 59.6283 6.36506 59.1422 6.04277C58.656 5.70706 58.1091 5.53921 57.5015 5.53921C56.9478 5.53921 56.5089 5.68021 56.1849 5.9622C55.8608 6.23077 55.6987 6.5732 55.6987 6.98948C55.6987 7.29833 55.7797 7.55347 55.9418 7.7549C56.1038 7.9429 56.2996 8.09061 56.5292 8.19804C56.7588 8.29204 56.9816 8.37261 57.1976 8.43975L58.9801 8.96346C59.8714 9.2186 60.56 9.61474 61.0462 10.1519C61.5458 10.689 61.7956 11.3336 61.7956 12.0856C61.7956 12.6898 61.6268 13.2337 61.2892 13.7171C60.9517 14.2005 60.4858 14.5765 59.8916 14.8451C59.2975 15.1137 58.6088 15.248 57.8256 15.248Z" fill="black"/>
<path d="M46.2761 15.248C45.5604 15.248 44.9258 15.1204 44.3721 14.8653C43.832 14.5967 43.4066 14.2341 43.096 13.7776C42.7854 13.3076 42.6301 12.7704 42.6301 12.1661C42.6301 11.5887 42.7517 11.0717 42.9947 10.6152C43.2513 10.1452 43.6429 9.74902 44.1695 9.42674C44.7097 9.10446 45.3849 8.87617 46.1951 8.74189L50.2462 8.07718V9.64831L46.6205 10.2526C45.9183 10.3734 45.4051 10.595 45.081 10.9173C44.7705 11.2396 44.6152 11.6357 44.6152 12.1057C44.6152 12.5488 44.7907 12.9181 45.1418 13.2136C45.5064 13.509 45.9588 13.6567 46.4989 13.6567C47.1876 13.6567 47.7818 13.5157 48.2814 13.2337C48.7946 12.9383 49.1929 12.5421 49.4765 12.0453C49.7736 11.5484 49.9221 10.9979 49.9221 10.3936V7.63404C49.9221 7.04319 49.6993 6.56648 49.2537 6.20391C48.8216 5.82792 48.2477 5.63992 47.532 5.63992C46.9108 5.63992 46.3571 5.80106 45.871 6.12335C45.3984 6.4322 45.0473 6.84848 44.8177 7.37219L43.177 6.5262C43.3796 6.02935 43.7037 5.58621 44.1493 5.19678C44.5949 4.79393 45.1148 4.47836 45.709 4.25008C46.3031 4.0218 46.9243 3.90765 47.5725 3.90765C48.4097 3.90765 49.1457 4.06879 49.7803 4.39108C50.415 4.69993 50.9079 5.13636 51.259 5.70035C51.6236 6.25091 51.8059 6.89548 51.8059 7.63404V15.0063H49.9626V12.9517L50.307 13.0726C50.0774 13.5023 49.7668 13.8783 49.3752 14.2005C48.9836 14.5228 48.5245 14.778 47.9978 14.966C47.4712 15.154 46.8973 15.248 46.2761 15.248Z" fill="black"/>
<path d="M35.7394 19.4376C34.9697 19.4376 34.254 19.3168 33.5923 19.0751C32.9442 18.8334 32.3838 18.4976 31.9111 18.0679C31.452 17.6517 31.1009 17.1615 30.8578 16.5975L32.6201 15.7918C32.8091 16.3021 33.167 16.7318 33.6936 17.0809C34.2338 17.4435 34.909 17.6248 35.7192 17.6248C36.3403 17.6248 36.9007 17.5039 37.4004 17.2622C37.9135 17.0339 38.3186 16.6848 38.6157 16.2148C38.9128 15.7582 39.0613 15.201 39.0613 14.543V12.1057L39.4057 12.4683C39.0276 13.2068 38.4807 13.7708 37.765 14.1603C37.0628 14.5497 36.2863 14.7444 35.4356 14.7444C34.4093 14.7444 33.4911 14.5094 32.6808 14.0394C31.8706 13.556 31.2359 12.9047 30.7768 12.0856C30.3177 11.253 30.0881 10.3332 30.0881 9.32603C30.0881 8.30546 30.3177 7.38562 30.7768 6.56648C31.2359 5.74735 31.8639 5.10278 32.6606 4.63279C33.4708 4.14937 34.3891 3.90765 35.4153 3.90765C36.2661 3.90765 37.0358 4.10237 37.7245 4.49179C38.4267 4.86779 38.9871 5.3915 39.4057 6.06292L39.1221 6.56648V4.14936H40.9654V14.543C40.9654 15.483 40.7425 16.3222 40.2969 17.0608C39.8513 17.7994 39.2301 18.3768 38.4334 18.7931C37.6502 19.2228 36.7522 19.4376 35.7394 19.4376ZM35.5976 12.9316C36.2458 12.9316 36.8265 12.7704 37.3396 12.4481C37.8663 12.1259 38.2849 11.6961 38.5955 11.159C38.906 10.6084 39.0613 9.99745 39.0613 9.32603C39.0613 8.66803 38.906 8.06375 38.5955 7.51319C38.2849 6.96262 37.8663 6.5262 37.3396 6.20391C36.8265 5.88163 36.2458 5.72049 35.5976 5.72049C34.936 5.72049 34.335 5.88163 33.7949 6.20391C33.2547 6.5262 32.8294 6.96262 32.5188 7.51319C32.2217 8.05032 32.0732 8.6546 32.0732 9.32603C32.0732 9.99745 32.2217 10.6084 32.5188 11.159C32.8294 11.6961 33.248 12.1259 33.7746 12.4481C34.3148 12.7704 34.9225 12.9316 35.5976 12.9316Z" fill="black"/>
</svg>
