<svg width="32" height="32" viewBox="0 0 32 32" fill="none" xmlns="http://www.w3.org/2000/svg">
<rect width="32" height="32" rx="6" fill="#19D45E"/>
<path d="M24.5 22.5V15.3L25 15.9C24.56 16.56 23.96 17.07 23.2 17.43C22.44 17.78 21.61 17.95 20.71 17.95C19.5 17.95 18.42 17.67 17.47 17.12C16.52 16.55 15.77 15.78 15.22 14.81C14.67 13.84 14.4 12.76 14.4 11.58C14.4 10.39 14.67 9.31 15.22 8.35C15.77 7.39 16.52 6.62 17.47 6.04C18.44 5.47 19.51 5.18 20.69 5.18C21.64 5.18 22.48 5.37 23.2 5.74C23.95 6.1 24.54 6.61 24.96 7.27L24.66 7.87V5.43H27.5V22.5H24.5ZM21.01 15.56C21.7 15.56 22.3 15.4 22.82 15.08C23.34 14.77 23.74 14.33 24.03 13.78C24.34 13.23 24.5 12.59 24.5 11.88C24.5 11.18 24.34 10.55 24.03 9.99C23.74 9.42 23.34 8.98 22.82 8.67C22.3 8.36 21.7 8.2 21.01 8.2C20.34 8.2 19.73 8.37 19.2 8.7C18.67 9.02 18.25 9.46 17.94 10.01C17.65 10.55 17.5 11.18 17.5 11.88C17.5 12.59 17.65 13.23 17.94 13.78C18.25 14.33 18.67 14.77 19.2 15.08C19.73 15.4 20.34 15.56 21.01 15.56Z" fill="white"/>
<path d="M7.5 22.5V15.3L7.01 15.9C7.44 16.56 8.04 17.07 8.8 17.43C9.56 17.78 10.39 17.95 11.29 17.95C12.5 17.95 13.58 17.67 14.53 17.12C15.48 16.55 16.23 15.78 16.78 14.81C17.33 13.84 17.6 12.76 17.6 11.58C17.6 10.39 17.33 9.31 16.78 8.35C16.23 7.39 15.48 6.62 14.53 6.04C13.56 5.47 12.49 5.18 11.31 5.18C10.36 5.18 9.52 5.37 8.8 5.74C8.05 6.1 7.46 6.61 7.04 7.27L7.34 7.87V5.43H4.5V22.5H7.5ZM10.97 15.56C10.28 15.56 9.68 15.4 9.16 15.08C8.64 14.77 8.24 14.33 7.95 13.78C7.64 13.23 7.5 12.59 7.5 11.88C7.5 11.18 7.64 10.55 7.95 9.99C8.24 9.42 8.64 8.98 9.16 8.67C9.68 8.36 10.28 8.2 10.97 8.2C11.64 8.2 12.25 8.37 12.78 8.7C13.31 9.02 13.73 9.46 14.04 10.01C14.33 10.55 14.48 11.18 14.48 11.88C14.48 12.59 14.33 13.23 14.04 13.78C13.73 14.33 13.31 14.77 12.78 15.08C12.25 15.4 11.64 15.56 10.97 15.56Z" fill="white"/>
</svg>
